<svg width="229" height="100" viewBox="0 0 229 100" fill="none" xmlns="http://www.w3.org/2000/svg">
<rect y="19" width="176" height="63" rx="31.5" fill="black"/>
<circle cx="179" cy="50" r="46" fill="black"/>
<path d="M187.655 31.2361C187.917 30.8735 188.178 30.5768 188.44 30.3461C188.734 30.1154 189.11 30 189.567 30C190.025 30 190.548 30.1483 191.137 30.445C192.379 31.0383 193 31.7965 193 32.7194C193 32.9501 192.967 33.1974 192.902 33.4611C192.869 33.6918 192.788 33.8896 192.657 34.0544V34.0049L183.193 50.2225L192.412 65.9456C192.575 66.3412 192.657 66.7367 192.657 67.1323C192.657 68.0882 192.134 68.8463 191.088 69.4067C190.303 69.8022 189.649 70 189.126 70C188.472 70 187.884 69.6209 187.361 68.8628L178.926 54.4747C178.305 55.5624 177.635 56.7161 176.916 57.9357C176.197 59.1553 175.461 60.4079 174.709 61.6934C173.99 62.946 173.255 64.1821 172.503 65.4017C171.783 66.6213 171.113 67.775 170.492 68.8628C170.231 69.2254 169.969 69.5056 169.708 69.7033C169.446 69.9011 169.119 70 168.727 70C168.171 70 167.534 69.8022 166.814 69.4067C165.703 68.7804 165.147 68.0223 165.147 67.1323C165.147 66.9015 165.18 66.7038 165.245 66.5389C165.311 66.3412 165.392 66.1269 165.49 65.8962V65.9456C166.994 63.3416 168.531 60.7046 170.1 58.0346C171.702 55.3646 173.271 52.7112 174.807 50.0742L165.441 34.0049C165.343 33.8072 165.245 33.5764 165.147 33.3127C165.049 33.049 165 32.8348 165 32.67C165 31.78 165.654 31.0383 166.961 30.445C167.485 30.1483 168.008 30 168.531 30C168.956 30 169.315 30.1154 169.609 30.3461C169.904 30.5768 170.182 30.8735 170.443 31.2361L179.074 45.8714L187.655 31.2361Z" fill="#64DC86"/>
<circle cx="179.5" cy="49.5" r="34" stroke="white" stroke-width="5"/>
<circle cx="205" cy="28" r="9" fill="white" stroke="black" stroke-width="4"/>
<path d="M34.464 35.592L23.952 67.848V67.8C23.76 68.28 23.488 68.68 23.136 69C22.816 69.288 22.416 69.432 21.936 69.432C21.68 69.432 21.424 69.4 21.168 69.336C20.944 69.304 20.704 69.256 20.448 69.192H20.496C18.672 68.616 18 67.592 18.48 66.12L29.424 32.856C29.584 32.344 29.856 31.912 30.24 31.56C30.656 31.208 31.136 31 31.68 30.936C32.224 30.84 32.752 30.776 33.264 30.744C33.776 30.68 34.176 30.648 34.464 30.648C34.752 30.648 35.152 30.68 35.664 30.744C36.176 30.776 36.704 30.824 37.248 30.888C37.696 30.952 38.128 31.192 38.544 31.608C38.992 32.024 39.328 32.44 39.552 32.856C41.344 38.36 43.152 43.912 44.976 49.512C46.832 55.08 48.656 60.616 50.448 66.12C50.896 67.592 50.224 68.616 48.432 69.192C48.176 69.256 47.936 69.304 47.712 69.336C47.52 69.4 47.296 69.432 47.04 69.432C46.592 69.432 46.176 69.288 45.792 69C45.44 68.68 45.184 68.28 45.024 67.8V67.848L34.464 35.592ZM38.064 57.48C38.064 58.504 37.696 59.384 36.96 60.12C36.256 60.824 35.392 61.176 34.368 61.176C33.344 61.176 32.48 60.824 31.776 60.12C31.072 59.384 30.72 58.504 30.72 57.48C30.72 56.456 31.072 55.592 31.776 54.888C32.48 54.152 33.344 53.784 34.368 53.784C35.392 53.784 36.256 54.152 36.96 54.888C37.696 55.592 38.064 56.456 38.064 57.48ZM60.6023 44.616V62.088C60.6023 62.92 60.7783 63.56 61.1303 64.008C61.4823 64.456 62.2343 64.68 63.3863 64.68H64.6343C65.8823 64.68 66.4743 65.416 66.4103 66.888C66.4103 68.392 65.8183 69.144 64.6343 69.144H63.0503C62.0263 69.144 61.0663 69.016 60.1703 68.76C59.2743 68.472 58.4103 68.072 57.5783 67.56V67.608C56.0103 66.584 55.2263 64.76 55.2263 62.136V44.616H53.3543C52.2023 44.616 51.5943 43.864 51.5303 42.36C51.5303 40.856 52.1383 40.104 53.3543 40.104H55.2263V34.968C55.2263 33.432 56.1383 32.664 57.9622 32.664C59.7223 32.664 60.6023 33.432 60.6023 34.968V40.104H64.5863C65.8343 40.104 66.4263 40.856 66.3623 42.36C66.3623 43.864 65.7703 44.616 64.5863 44.616H60.6023ZM85.9399 40.104C86.7719 40.104 87.6199 40.28 88.4839 40.632C89.3799 40.984 90.2439 41.432 91.0759 41.976H91.0279C91.8599 42.584 92.4999 43.384 92.9479 44.376C93.3959 45.336 93.6199 46.456 93.6199 47.736V61.368C93.6199 63.992 92.7559 65.928 91.0279 67.176C89.3319 68.392 87.6359 69 85.9399 69H78.2599C77.4279 69 76.5799 68.856 75.7159 68.568C74.8519 68.28 74.0039 67.816 73.1719 67.176C71.4439 65.96 70.5799 64.024 70.5799 61.368V47.736C70.5799 46.456 70.8039 45.336 71.2519 44.376C71.6999 43.384 72.3399 42.584 73.1719 41.976H73.1239C73.9239 41.432 74.7719 40.984 75.6679 40.632C76.5639 40.28 77.4279 40.104 78.2599 40.104H85.9399ZM85.0759 64.488C86.2599 64.488 87.0919 64.152 87.5719 63.48C88.0839 62.808 88.3399 62.088 88.3399 61.32V47.784C88.3399 46.984 88.0839 46.264 87.5719 45.624C87.0919 44.952 86.2599 44.616 85.0759 44.616H79.1239C77.9399 44.616 77.0919 44.952 76.5799 45.624C76.0999 46.264 75.8599 46.984 75.8599 47.784V61.32C75.8599 62.088 76.0999 62.808 76.5799 63.48C77.0919 64.152 77.9399 64.488 79.1239 64.488H85.0759ZM114.569 48.12C114.569 47.704 114.505 47.304 114.377 46.92C114.249 46.504 114.089 46.12 113.897 45.768C113.481 45 112.617 44.616 111.305 44.616H108.233C106.921 44.616 106.041 45 105.593 45.768C105.209 46.504 105.017 47.288 105.017 48.12V67.128C105.017 68.632 104.137 69.384 102.377 69.384C100.553 69.384 99.6413 68.632 99.6413 67.128V47.688C99.6413 45.064 100.505 43.144 102.233 41.928C103.993 40.712 105.705 40.104 107.369 40.104H112.217C112.953 40.104 113.769 40.248 114.665 40.536C115.561 40.824 116.425 41.272 117.257 41.88C118.057 41.272 118.889 40.824 119.753 40.536C120.649 40.248 121.497 40.104 122.297 40.104H127.097C128.793 40.104 130.489 40.712 132.185 41.928C133.945 43.112 134.825 45.032 134.825 47.688V67.128C134.825 68.632 133.929 69.384 132.137 69.384C130.345 69.384 129.449 68.632 129.449 67.128V48.12C129.449 47.704 129.401 47.288 129.305 46.872C129.209 46.456 129.033 46.072 128.777 45.72L128.825 45.768C128.569 45.352 128.249 45.064 127.865 44.904C127.481 44.712 126.921 44.616 126.185 44.616H123.161C121.817 44.616 120.937 45 120.521 45.768C120.105 46.472 119.897 47.256 119.897 48.12V67.128C119.897 68.632 119.017 69.384 117.257 69.384C115.465 69.384 114.569 68.632 114.569 67.128V48.12Z" fill="#64DC86"/>
</svg>
