<svg width="128" height="128" viewBox="0 0 128 128" fill="none" xmlns="http://www.w3.org/2000/svg">
<g clip-path="url(#clip0_506_1866)">
<rect width="128" height="128" fill="url(#paint0_linear_506_1866)"/>
<path d="M92.0083 89.5007L70.3671 37.179C69.1464 34.4739 67.332 33.1543 64.9402 33.1543H63.0268C60.6351 33.1543 58.8207 34.4739 57.6 37.179L48.1815 59.9749H41.0557C38.9279 59.9914 37.1959 61.7069 37.1794 63.8512V63.9007C37.1959 66.0285 38.9279 67.7605 41.0557 67.777H44.8825L35.8928 89.5007C35.7279 89.979 35.6289 90.4739 35.6289 90.9852C35.6289 92.2058 36.0083 93.1625 36.6846 93.9048C37.3609 94.6471 38.3341 95.01 39.5547 95.01C40.3629 94.9935 41.1382 94.746 41.7815 94.2677C42.4743 93.7893 42.9526 93.0966 43.332 92.3048L53.2289 67.7605H60.0908C62.2186 67.744 63.9506 66.0285 63.967 63.8842V63.7852C63.9506 61.6574 62.2186 59.9254 60.0908 59.9089H56.4289L63.9835 41.0883L84.5691 92.2883C84.9485 93.0801 85.4268 93.7729 86.1196 94.2512C86.7629 94.7296 87.5547 94.977 88.3464 94.9935C89.567 94.9935 90.5237 94.6306 91.2165 93.8883C91.9093 93.146 92.2722 92.1893 92.2722 90.9687C92.2887 90.4739 92.2062 89.9625 92.0083 89.5007Z" fill="white"/>
</g>
<defs>
<linearGradient id="paint0_linear_506_1866" x1="111.717" y1="23.8493" x2="16.4855" y2="103.977" gradientUnits="userSpaceOnUse">
<stop stop-color="#B6509E"/>
<stop offset="1" stop-color="#2EBAC6"/>
</linearGradient>
<clipPath id="clip0_506_1866">
<rect width="128" height="128" fill="white"/>
</clipPath>
</defs>
</svg>
