<svg width="128" height="128" viewBox="0 0 128 128" fill="none" xmlns="http://www.w3.org/2000/svg">
<g clip-path="url(#clip0_506_1823)">
<rect width="128" height="128" fill="#2081E2"/>
<path d="M31.5748 66.15L31.851 65.7161L48.4999 39.6709C48.7431 39.2895 49.3153 39.329 49.4993 39.7432C52.2808 45.9768 54.6808 53.7292 53.5564 58.5555C53.0764 60.5412 51.7614 63.2306 50.2818 65.7161C50.0911 66.0777 49.8808 66.4329 49.6572 66.7748C49.552 66.9325 49.3745 67.0247 49.1837 67.0247H32.0613C31.6011 67.0247 31.3316 66.5249 31.5748 66.15Z" fill="white"/>
<path d="M105.785 70.9897V75.1124C105.785 75.3491 105.64 75.5596 105.43 75.6516C104.141 76.204 99.7288 78.2292 97.8943 80.7804C93.2126 87.2966 89.6356 96.614 81.6398 96.614H48.2829C36.4603 96.614 26.8799 87.0008 26.8799 75.1387V74.7573C26.8799 74.4417 27.1363 74.1853 27.452 74.1853H46.0472C46.4154 74.1853 46.685 74.5272 46.6522 74.8889C46.5206 76.0987 46.7442 77.3349 47.3162 78.4593C48.421 80.7015 50.7092 82.1021 53.1816 82.1021H62.3871V74.9152H53.2867C52.8199 74.9152 52.5437 74.376 52.8134 73.9946C52.912 73.8434 53.0237 73.6855 53.1421 73.508C54.0035 72.285 55.233 70.3847 56.4561 68.2213C57.2911 66.7617 58.0999 65.2032 58.7509 63.6384C58.8824 63.3556 58.9877 63.0663 59.0928 62.7835C59.2704 62.2838 59.4545 61.8169 59.586 61.3501C59.7174 60.9556 59.8227 60.5413 59.9279 60.1534C60.237 58.8251 60.3685 57.418 60.3685 55.9582C60.3685 55.3862 60.3422 54.7879 60.2896 54.2157C60.2633 53.5911 60.1843 52.9664 60.1054 52.3418C60.0528 51.7894 59.9542 51.2437 59.849 50.6717C59.7174 49.8365 59.5334 49.0081 59.3229 48.173L59.2507 47.8574C59.0928 47.2854 58.9614 46.7395 58.7772 46.1675C58.2578 44.3724 57.6593 42.6233 57.0282 40.9861C56.798 40.3351 56.5349 39.7105 56.272 39.0858C55.884 38.1455 55.4895 37.2907 55.1279 36.4819C54.9437 36.1137 54.7859 35.7783 54.6282 35.4364C54.4507 35.0484 54.2665 34.6606 54.0824 34.2922C53.9509 34.0095 53.7996 33.7465 53.6945 33.4836L52.5701 31.4057C52.4122 31.123 52.6753 30.7876 52.9842 30.8731L60.0199 32.78H60.0397C60.0528 32.78 60.0595 32.7865 60.066 32.7865L60.9932 33.043L62.0123 33.3322L62.3871 33.4375V29.2556C62.3871 27.2369 64.0047 25.5996 66.0037 25.5996C67.0031 25.5996 67.9104 26.0072 68.5614 26.6714C69.2123 27.3356 69.6201 28.243 69.6201 29.2556V35.4627L70.3696 35.6731C70.4289 35.6928 70.4881 35.7191 70.5407 35.7585C70.7247 35.8966 70.9877 36.1006 71.3231 36.3503C71.5862 36.5608 71.8689 36.8172 72.2108 37.0802C72.8881 37.6261 73.6967 38.3296 74.5845 39.1383C74.8211 39.3423 75.0514 39.5526 75.2618 39.7631C76.4059 40.8282 77.6881 42.0776 78.9112 43.4585C79.2531 43.8463 79.5884 44.2408 79.9303 44.6551C80.2722 45.0759 80.6339 45.4902 80.9495 45.9045C81.3638 46.4568 81.8108 47.0288 82.1988 47.6273C82.383 47.91 82.5933 48.1993 82.7709 48.482C83.2706 49.2382 83.7112 50.0207 84.132 50.8031C84.3095 51.1648 84.4937 51.5593 84.6514 51.9473C85.1183 52.9927 85.4865 54.058 85.7232 55.1232C85.7956 55.3534 85.8482 55.6032 85.8745 55.8268V55.8793C85.9533 56.195 85.9796 56.5304 86.0059 56.8723C86.1112 57.9637 86.0586 59.0553 85.8219 60.1534C85.7232 60.6203 85.5918 61.0607 85.4339 61.5276C85.276 61.9748 85.1183 62.4416 84.9145 62.8822C84.52 63.7961 84.0531 64.7102 83.5007 65.5649C83.3232 65.8805 83.1128 66.2159 82.9024 66.5314C82.6722 66.8668 82.4356 67.1825 82.2251 67.4916C81.9358 67.8861 81.6268 68.3003 81.3112 68.6685C81.0284 69.0565 80.739 69.4444 80.4234 69.7863C79.983 70.3057 79.5621 70.799 79.1215 71.2724C78.8585 71.5815 78.5758 71.8971 78.2864 72.1798C78.0037 72.4954 77.7144 72.7781 77.4514 73.0411C77.0108 73.4817 76.6426 73.8236 76.3335 74.1063L75.6102 74.7705C75.5051 74.8625 75.367 74.9152 75.2224 74.9152H69.6201V82.1021H76.6689C78.247 82.1021 79.7462 81.5431 80.956 80.5174C81.3703 80.1558 83.1786 78.5908 85.3156 76.2303C85.3878 76.1514 85.48 76.0922 85.5851 76.0659L105.055 70.4373C105.417 70.3321 105.785 70.6082 105.785 70.9897Z" fill="white"/>
</g>
<defs>
<clipPath id="clip0_506_1823">
<rect width="128" height="128" fill="white"/>
</clipPath>
</defs>
</svg>
