<svg width="128" height="128" viewBox="0 0 128 128" fill="none" xmlns="http://www.w3.org/2000/svg">
<g clip-path="url(#clip0_506_1852)">
<rect width="128" height="128" fill="#FF007A"/>
<g clip-path="url(#clip1_506_1852)">
<path d="M50.5099 29.7553C49.4119 29.6005 49.3596 29.5489 49.8824 29.4973C50.8759 29.3425 53.1766 29.5489 54.7975 29.9101C58.5622 30.7873 61.9609 33.0577 65.5687 37.0309L66.5099 38.1144L67.8694 37.908C73.6733 36.9793 79.6341 37.7016 84.6014 39.972C85.9609 40.5912 88.1047 41.8296 88.3661 42.1392C88.4707 42.2424 88.6275 42.9132 88.7321 43.584C89.0981 46.0092 88.9413 47.8152 88.157 49.2084C87.7387 49.9824 87.7387 50.1887 88.0001 50.8595C88.2092 51.3755 88.8367 51.7367 89.4119 51.7367C90.6668 51.7367 91.9739 49.776 92.6014 47.0412L92.8628 45.9576L93.3334 46.4736C96.0001 49.4148 98.0916 53.4911 98.4053 56.3807L98.5099 57.1547L98.0393 56.4839C97.255 55.2971 96.523 54.5231 95.5295 53.8523C93.7517 52.6655 91.8694 52.3043 86.9021 52.0463C82.4053 51.7883 79.8432 51.4271 77.3334 50.6015C73.0458 49.2084 70.8498 47.4024 65.7779 40.746C63.5295 37.8048 62.1177 36.2053 60.706 34.8637C57.621 31.9225 54.536 30.3745 50.5099 29.7553Z" fill="white"/>
<path d="M89.4642 36.3089C89.5688 34.3481 89.8302 33.0581 90.4054 31.8713C90.6145 31.4069 90.8237 30.9941 90.876 30.9941C90.9283 30.9941 90.8237 31.3553 90.6668 31.7681C90.2485 32.9033 90.1962 34.5029 90.4577 36.3089C90.8237 38.6309 90.9805 38.9405 93.4904 41.4689C94.6407 42.6556 96.0002 44.152 96.523 44.7712L97.4119 45.9064L96.523 45.0808C95.425 44.0488 92.9152 42.0881 92.34 41.8301C91.974 41.6237 91.9217 41.6237 91.6603 41.8817C91.4511 42.0881 91.3988 42.3976 91.3988 43.894C91.3466 46.216 91.0328 47.6608 90.2485 49.1572C89.8302 49.9312 89.7779 49.7764 90.144 48.8992C90.4054 48.2284 90.4577 47.9188 90.4577 45.7C90.4577 41.2109 89.9348 40.1273 86.7453 38.3213C85.9609 37.8569 84.6015 37.1861 83.8172 36.8249C82.9805 36.4637 82.3531 36.1541 82.4054 36.1541C82.51 36.0509 85.5949 36.9281 86.7975 37.4441C88.6276 38.1665 88.9413 38.2181 89.1505 38.1665C89.3073 38.0117 89.4119 37.5989 89.4642 36.3089Z" fill="white"/>
<path d="M52.6536 43.9968C50.4575 41.0041 49.0457 36.3601 49.3594 32.9029L49.464 31.8193L49.9869 31.9225C50.9281 32.0773 52.549 32.6965 53.3333 33.1609C55.4248 34.3993 56.366 36.1021 57.2549 40.3333C57.5163 41.5717 57.8823 43.0164 58.0392 43.4808C58.3006 44.2548 59.2941 46.0608 60.1307 47.196C60.7058 48.0216 60.3398 48.4344 59.0326 48.3312C57.0457 48.1248 54.379 46.3188 52.6536 43.9968Z" fill="white"/>
<path d="M86.7972 66.4423C76.4443 62.3143 72.7842 58.7539 72.7842 52.7168C72.7842 51.8396 72.8365 51.1172 72.8365 51.1172C72.8888 51.1172 73.2548 51.4268 73.7254 51.788C75.8169 53.4392 78.1698 54.1616 84.7057 55.0904C88.5227 55.6579 90.7188 56.0707 92.7057 56.7415C99.0325 58.8055 102.954 63.0367 103.895 68.7642C104.157 70.4154 104 73.563 103.582 75.2142C103.216 76.5042 102.17 78.8778 101.908 78.9294C101.856 78.9294 101.752 78.6714 101.752 78.2586C101.647 76.0914 100.549 74.0274 98.7188 72.4278C96.5227 70.5702 93.6992 69.177 86.7972 66.4423Z" fill="white"/>
<path d="M79.477 68.1453C79.3725 67.3713 79.111 66.3909 78.9542 65.9781L78.6927 65.2041L79.1633 65.7717C79.843 66.5457 80.3659 67.4745 80.8365 68.7645C81.2025 69.7449 81.2025 70.0545 81.2025 71.654C81.2025 73.202 81.1502 73.5632 80.8365 74.4404C80.3136 75.8336 79.6862 76.814 78.6404 77.8976C76.7581 79.8068 74.3006 80.8388 70.7973 81.3032C70.1698 81.3548 68.3921 81.5096 66.8234 81.6128C62.9019 81.8192 60.2875 82.232 57.9345 83.0576C57.6208 83.1608 57.3071 83.264 57.2548 83.2124C57.1502 83.1092 58.7712 82.1804 60.0783 81.5612C61.9084 80.684 63.7908 80.2196 67.9215 79.4972C69.9607 79.1876 72.0522 78.7748 72.5751 78.5684C77.7515 76.9688 80.3136 72.9956 79.477 68.1453Z" fill="white"/>
<path d="M84.2352 76.4533C82.8757 73.5121 82.562 70.7257 83.294 68.0941C83.3986 67.8361 83.5031 67.5781 83.6077 67.5781C83.7123 67.5781 84.026 67.7329 84.3397 67.9393C84.9672 68.3521 86.2744 69.0745 89.6208 70.8805C93.8561 73.1509 96.2613 74.9053 97.9345 76.9177C99.3986 78.672 100.287 80.6844 100.706 83.1612C100.967 84.5544 100.81 87.9084 100.444 89.3016C99.294 93.6875 96.6796 97.1963 92.8626 99.2087C92.2874 99.5183 91.8169 99.7247 91.7646 99.7247C91.7123 99.7247 91.9214 99.2087 92.2352 98.5895C93.4901 95.9579 93.6469 93.4295 92.7057 90.5915C92.1306 88.8372 90.928 86.7216 88.5227 83.1612C85.6469 79.0332 84.9672 77.9496 84.2352 76.4533Z" fill="white"/>
<path d="M45.2811 92.2429C49.1504 89.0438 53.9086 86.7734 58.3008 86.051C60.1831 85.7414 63.3204 85.8446 65.0459 86.309C67.8171 87.0314 70.3269 88.5794 71.6341 90.4886C72.889 92.3461 73.4642 93.9457 74.0393 97.5061C74.2485 98.8993 74.5099 100.344 74.5622 100.654C74.9805 102.511 75.8171 103.956 76.8628 104.73C78.4838 105.917 81.3073 105.968 84.0785 104.936C84.5491 104.782 84.9674 104.627 84.9674 104.678C85.072 104.782 83.6602 105.71 82.7191 106.175C81.4119 106.846 80.3661 107.052 78.9543 107.052C76.4445 107.052 74.3008 105.762 72.5753 103.182C72.2092 102.666 71.4772 101.17 70.8498 99.7765C69.0197 95.5969 68.0785 94.3585 65.9347 92.9653C64.0524 91.7786 61.6472 91.5206 59.8171 92.3977C57.4119 93.5329 56.7844 96.5773 58.4576 98.4349C59.1374 99.2089 60.3923 99.8281 61.438 99.9829C63.3726 100.241 65.0459 98.7445 65.0459 96.8353C65.0459 95.5969 64.5753 94.8745 63.3204 94.3069C61.6472 93.5845 59.8171 94.4101 59.8694 96.0097C59.8694 96.6805 60.1831 97.0933 60.8628 97.4029C61.2811 97.6093 61.2811 97.6093 60.9674 97.5577C59.4511 97.2481 59.0851 95.3905 60.2877 94.2037C61.7517 92.7589 64.8367 93.3781 65.8825 95.3905C66.3008 96.2161 66.353 97.8673 65.987 98.8993C65.0981 101.17 62.5883 102.356 60.0262 101.686C58.3008 101.221 57.5687 100.757 55.4772 98.6413C51.8171 94.9261 50.4053 94.2037 45.1766 93.4297L44.1831 93.2749L45.2811 92.2429Z" fill="white"/>
<path fill-rule="evenodd" clip-rule="evenodd" d="M17.7777 9.21878C29.9607 23.8215 48.7319 46.5253 49.6731 47.7637C50.4574 48.7957 50.1437 49.7761 48.8365 50.4985C48.1045 50.9112 46.5881 51.324 45.8561 51.324C45.0195 51.324 44.026 50.9112 43.3463 50.2405C42.8757 49.7761 40.8365 46.8349 36.2352 39.7657C32.7319 34.3478 29.7515 29.8586 29.6992 29.807C29.4901 29.7038 29.4901 29.7038 35.8692 40.9525C39.8953 48.0217 41.2025 50.5501 41.2025 50.8596C41.2025 51.5304 40.9933 51.8916 40.1567 52.8204C38.745 54.3684 38.1175 56.1228 37.6469 59.7864C37.1241 63.8627 35.7123 66.7523 31.6862 71.6543C29.3332 74.5439 28.9672 75.0599 28.392 76.2466C27.66 77.6914 27.4509 78.517 27.3463 80.3746C27.2417 82.3354 27.4509 83.5738 28.026 85.4314C28.5489 87.0826 29.1241 88.1661 30.5358 90.2817C31.7384 92.1393 32.4705 93.5325 32.4705 94.0485C32.4705 94.4613 32.575 94.4613 34.4574 94.0485C38.9541 93.0165 42.6666 91.2621 44.7058 89.0949C45.9607 87.7534 46.2744 87.031 46.2744 85.1734C46.2744 83.9866 46.2221 83.7286 45.9084 83.0062C45.3855 81.871 44.392 80.9422 42.2482 79.4974C39.4247 77.5882 38.2221 76.0402 37.9084 73.9763C37.6469 72.2219 37.9607 71.0351 39.5293 67.7843C41.1502 64.4303 41.5685 63.0372 41.8299 59.6316C41.9868 57.4644 42.2482 56.5872 42.8757 55.9164C43.5554 55.194 44.1306 54.936 45.7515 54.7296C48.4182 54.3684 50.1437 53.6976 51.5032 52.4076C52.7058 51.324 53.2286 50.2405 53.2809 48.6409L53.3332 47.4541L52.6535 46.7317C50.196 43.9453 16.1567 7 15.9999 7C15.9476 7 16.7842 7.98039 17.7777 9.21878ZM33.8299 82.5934C34.4051 81.613 34.0914 80.3746 33.1502 79.7554C32.2613 79.1878 30.9018 79.4458 30.9018 80.2198C30.9018 80.4262 31.0064 80.6326 31.3201 80.7358C31.7907 80.9938 31.843 81.2518 31.477 81.8194C31.111 82.387 31.111 82.903 31.5816 83.2642C32.3136 83.8318 33.3071 83.5222 33.8299 82.5934Z" fill="white"/>
<path fill-rule="evenodd" clip-rule="evenodd" d="M55.0063 55.4523C53.7514 55.8135 52.5488 57.1551 52.1828 58.4967C51.9736 59.3223 52.0782 60.8187 52.4442 61.2831C53.0194 62.0054 53.5422 62.2118 55.0063 62.2118C57.8821 62.2118 60.3396 60.9735 60.6011 59.4771C60.8625 58.2387 59.7645 56.5359 58.2481 55.7619C57.4638 55.3491 55.8429 55.1943 55.0063 55.4523ZM58.3527 58.0323C58.771 57.4131 58.6141 56.7423 57.8298 56.2779C56.4181 55.4007 54.2743 56.1231 54.2743 57.4647C54.2743 58.1355 55.3723 58.8579 56.4181 58.8579C57.0978 58.8579 58.039 58.4451 58.3527 58.0323Z" fill="white"/>
</g>
</g>
<defs>
<clipPath id="clip0_506_1852">
<rect width="128" height="128" fill="white"/>
</clipPath>
<clipPath id="clip1_506_1852">
<rect width="88" height="100" fill="white" transform="translate(16 7)"/>
</clipPath>
</defs>
</svg>
