<svg width="16" height="16" viewBox="0 0 16 16" fill="none" xmlns="http://www.w3.org/2000/svg">
<path d="M7.89927 3.05194C7.99477 2.95645 8.02158 2.81198 7.96659 2.6886C7.91166 2.56523 7.78635 2.48847 7.65151 2.49557C6.3286 2.5652 5.08327 3.12249 4.05391 4.08323L4.04582 4.09104C1.89618 6.24068 1.89618 9.77417 4.04582 11.9238C6.19547 14.0734 9.72896 14.0734 11.8786 11.9238C12.8512 10.9511 13.4048 9.63463 13.4741 8.31814C13.4812 8.18323 13.4044 8.05798 13.281 8.00299C13.1577 7.94806 13.0132 7.97487 12.9177 8.07031C11.5235 9.4645 9.12163 9.61885 7.7688 8.26602C6.3958 6.89303 6.39575 4.55533 7.7688 3.1824L7.89581 3.05543L7.89633 3.0549L7.89686 3.05439L7.89731 3.05389L7.89927 3.05194Z" fill="#171717"/>
</svg>
