<svg width="16" height="16" viewBox="0 0 16 16" fill="none" xmlns="http://www.w3.org/2000/svg">
<path d="M8.0026 0.666992C8.3708 0.666992 8.66927 0.965472 8.66927 1.33366V2.667C8.66927 3.03518 8.3708 3.33366 8.0026 3.33366C7.6344 3.33366 7.33594 3.03518 7.33594 2.667V1.33366C7.33594 0.965472 7.6344 0.666992 8.0026 0.666992V0.666992Z" fill="#F9F8F4"/>
<path d="M8.00309 4.30176C5.96053 4.30176 4.30469 5.95758 4.30469 8.00019C4.30469 10.0427 5.96052 11.6986 8.00309 11.6986C10.0457 11.6986 11.7015 10.0427 11.7015 8.00019C11.7015 5.95758 10.0457 4.30176 8.00309 4.30176V4.30176Z" fill="#F9F8F4"/>
<path d="M3.77479 2.83003C3.51444 2.56968 3.09233 2.56968 2.83198 2.83003C2.57163 3.09038 2.57163 3.51249 2.83198 3.77284L3.78437 4.72522C4.04472 4.98557 4.46683 4.98557 4.72718 4.72522C4.98752 4.46487 4.98752 4.04276 4.72718 3.78241L3.77479 2.83003Z" fill="#F9F8F4"/>
<path d="M0.667969 8.00065C0.667969 7.63245 0.966449 7.33398 1.33463 7.33398H2.66797C3.03616 7.33398 3.33463 7.63245 3.33463 8.00065C3.33463 8.36885 3.03616 8.66731 2.66797 8.66731H1.33463C0.966449 8.66731 0.667969 8.36885 0.667969 8.00065Z" fill="#F9F8F4"/>
<path d="M4.72718 12.2181C4.98752 11.9578 4.98752 11.5357 4.72718 11.2753C4.46683 11.015 4.04472 11.015 3.78437 11.2753L2.83198 12.2277C2.57163 12.4881 2.57163 12.9102 2.83198 13.1705C3.09233 13.4308 3.51444 13.4308 3.77479 13.1705L4.72718 12.2181Z" fill="#F9F8F4"/>
<path d="M8.0026 12.667C8.3708 12.667 8.66927 12.9655 8.66927 13.3337V14.667C8.66927 15.0352 8.3708 15.3337 8.0026 15.3337C7.6344 15.3337 7.33594 15.0352 7.33594 14.667V13.3337C7.33594 12.9655 7.6344 12.667 8.0026 12.667Z" fill="#F9F8F4"/>
<path d="M12.2201 11.2753C11.9597 11.015 11.5377 11.015 11.2773 11.2753C11.0169 11.5357 11.0169 11.9578 11.2773 12.2181L12.2297 13.1705C12.4901 13.4308 12.9121 13.4308 13.1724 13.1705C13.4328 12.9102 13.4328 12.4881 13.1724 12.2277L12.2201 11.2753Z" fill="#F9F8F4"/>
<path d="M12.668 8.00065C12.668 7.63245 12.9664 7.33398 13.3346 7.33398H14.668C15.0362 7.33398 15.3346 7.63245 15.3346 8.00065C15.3346 8.36885 15.0362 8.66731 14.668 8.66731H13.3346C12.9664 8.66731 12.668 8.36885 12.668 8.00065Z" fill="#F9F8F4"/>
<path d="M13.1724 3.77284C13.4328 3.51249 13.4328 3.09038 13.1724 2.83003C12.9121 2.56968 12.4901 2.56968 12.2297 2.83003L11.2773 3.78241C11.0169 4.04276 11.0169 4.46487 11.2773 4.72522C11.5377 4.98557 11.9597 4.98557 12.2201 4.72522L13.1724 3.77284Z" fill="#F9F8F4"/>
</svg>
