<svg width="19" height="22" viewBox="0 0 19 22" fill="none" xmlns="http://www.w3.org/2000/svg">
<path d="M17.303 9.47706L2.85776 0.650918C2.61714 0.498291 2.33926 0.414762 2.05445 0.40945C1.76963 0.404138 1.48883 0.477246 1.2427 0.620795C0.992932 0.757964 0.784715 0.959984 0.63996 1.2056C0.495205 1.45121 0.419264 1.73134 0.420128 2.01651V19.6889C0.419264 19.974 0.495205 20.2542 0.63996 20.4998C0.784715 20.7454 0.992932 20.9474 1.2427 21.0846C1.48883 21.2281 1.76963 21.3012 2.05445 21.2959C2.33926 21.2906 2.61714 21.2071 2.85776 21.0545L17.303 12.2283C17.5398 12.0854 17.7356 11.8836 17.8715 11.6426C18.0075 11.4015 18.0789 11.1295 18.0789 10.8527C18.0789 10.5759 18.0075 10.3038 17.8715 10.0628C17.7356 9.8218 17.5398 9.62003 17.303 9.47706Z" fill="white"/>
</svg>
